<?xml version="1.0" standalone="no"?>
<!DOCTYPE svg PUBLIC "-//W3C//DTD SVG 1.1//EN" "http://www.w3.org/Graphics/SVG/1.1/DTD/svg11.dtd" >
<svg xmlns="http://www.w3.org/2000/svg" xmlns:xlink="http://www.w3.org/1999/xlink" version="1.1">
<metadata>
Created by FontForge 20170731 at Sun Feb 11 16:41:28 2018
 By Aleksey,,,
</metadata>
<defs>
<font id="Violet_evergardenV14-Regular" horiz-adv-x="250" >
  <font-face 
    font-family="Violet_evergarden V14"
    font-weight="400"
    font-stretch="normal"
    units-per-em="1000"
    panose-1="2 0 5 3 0 0 0 0 0 0"
    ascent="800"
    descent="-200"
    x-height="472"
    cap-height="682"
    bbox="33 -200 774 771.368"
    underline-thickness="50"
    underline-position="-200"
    unicode-range="U+000D-00A0"
  />
<missing-glyph horiz-adv-x="364" 
d="M33 0v666h265v-666h-265zM66 33h199v600h-199v-600z" />
    <glyph glyph-name=".notdef" horiz-adv-x="364" 
d="M33 0v666h265v-666h-265zM66 33h199v600h-199v-600z" />
    <glyph glyph-name=".null" 
 />
    <glyph glyph-name=".null" 
 />
    <glyph glyph-name="nonmarkingreturn" horiz-adv-x="333" 
 />
    <glyph glyph-name="CR" unicode="&#xd;" 
 />
    <glyph glyph-name="space" unicode=" " 
 />
    <glyph glyph-name="quotedbl" unicode="&#x22;" horiz-adv-x="363" 
d="M232 466q0 2 3 2q2 0 2 -2t-2 -2q-3 0 -3 2zM230 652q5 2 14 0q1 0 7 -1.5t13 -3t13 -2.5q23 -4 28 -6.5t5 -11.5t-20 -9h-15l-19 1l-3 -20q-3 -30 -3 -35q-2 -16 -9 -18h-2q-16 0 -16 45v23h-66l-4 -14q-2 -16 -2 -39q0 -27 -11 -27q-5 0 -10 4q-6 4 -6 13q0 6 3 24
q3 17 3 29q0 6 -1 6q-2 2 -29 5t-41 3q-8 0 -2 13q3 5 6 7q5 2 85 8q77 4 82 6z" />
    <glyph glyph-name="quotesingle" unicode="'" horiz-adv-x="175" 
d="M82 611q0 6 14.5 34t19.5 28q9 0 9 -11q0 -9 -8 -27q-2 -4 -15 -37t-23.5 -54t-17.5 -21q-6 0 -6 8q0 17 21 59q6 12 6 21z" />
    <glyph glyph-name="comma" unicode="," horiz-adv-x="289" 
d="M91 197q6 1 27 1q57 0 90 -5q28 -3 28 -16q0 -3 -3 -6q-5 -5 -92 -5q-70 0 -81 4q-10 3 -10 8q0 6 11.5 12t29.5 7z" />
    <glyph glyph-name="period" unicode="." horiz-adv-x="197" 
d="M66 206q8 8 25 8q22 0 33 -10q14 -11 17 -16.5t3 -18.5q0 -16 -18 -33q-15 -14 -23 -14q-5 0 -8 1q-28 7 -40 25q-5 6 -5 13q0 2 4 18q10 24 12 27z" />
    <glyph glyph-name="zero" unicode="0" horiz-adv-x="604" 
d="M401 665q-30 11 -58 11q-19 0 -56 -3t-59 -18q-42 -29 -59 -74q-23 -58 -23 -129q0 -47 11 -96q10 -44 16 -83q5 -35 10 -42q4 -4 6 -15q3 -21 47 -63q16 -15 30.5 -20t61.5 -13q18 -3 43 -3q46 0 58 7q18 10 44.5 56t34.5 82q16 67 16 152q0 37 -5 57q-3 8 -9.5 35.5
t-12 46.5t-9.5 19q-5 0 -5 10t-13.5 34t-23.5 31q-9 6 -45 18zM230 703q27 3 101 5h31q39 0 64 -8q21 -8 42 -8q12 0 20 1q7 1 20 1q42 0 42 -13q0 -5 -12 -7t-12 -8q0 -1 0.5 -4t0.5 -4q0 -7 -7 -7q-4 0 -16 5q-14 6 -20 6t-6 -5t6 -14q20 -34 45 -125q12 -43 15 -50
q4 -8 4 -48q0 -98 -10 -133q-2 -6 -4.5 -20t-5.5 -24.5t-7 -14.5q-7 -10 -14 -32q-13 -36 -39 -64t-53 -35q-15 -3 -37 -3q-43 0 -64 8q-14 5 -20 -2q-6 -8 -17 -8q-13 0 -23 9q-12 10 -17 10t-8 5q-1 2 -16 13t-15 17q0 10 -7 17q-34 31 -48 119q-11 61 -14 71
q-14 42 -14 112q0 24 3 39q17 103 69 152q4 3 6.5 7t3 6t-0.5 3h-7q-7 0 -53 -2q-20 -2 -42 -2q-18 0 -28 6q-12 9 -9 12q4 4 49.5 9.5t67.5 5.5h6h10q16 0 40 2z" />
    <glyph glyph-name="one" unicode="1" horiz-adv-x="139" 
d="M69 690q15 5 16 5q4 0 4 -100q0 -139 -6 -319.5t-13 -200.5q-1 -4 -11 -2q-9 3 -9 20q0 22 7 98q5 56 5 146q0 83 -1 145l-3 204z" />
    <glyph glyph-name="two" unicode="2" horiz-adv-x="443" 
d="M240 681q-10 8 -35 8q-48 0 -74 -18q-13 -9 -25 -34q-9 -18 -11 -30t-2 -47v-50l31 -66q50 -105 66 -105q6 0 17 23t19 50q34 129 34 188q0 65 -20 81zM180 706q3 1 13 1q39 0 57 -12q12 -8 17 -27q6 -21 6 -78q0 -52 -6 -82q-6 -27 -6 -36q0 -5 -4 -12q-4 -6 -10 -37
q-5 -23 -25 -66l-18 -40l14 -20q15 -24 49 -56t57 -46q27 -16 27 -21t18 -14q19 -11 19 -18q0 -4 -9 -4t-34.5 17t-25.5 23t-14 9q-7 1 -21 12t-30 26t-30.5 29.5l-24.5 24.5l-10 10q-3 0 -12 -20q-6 -13 -35.5 -58.5t-34.5 -55.5q-8 -14 -22 -26t-22 -12h-2q-6 1 -6 7
t19 25q18 17 48 60.5t44 73.5l13 28l-18 24q-13 16 -44 75q-23 50 -29 54q-13 11 -13 96q0 38 5 59t20 43q14 22 14 23q0 6 66 21z" />
    <glyph glyph-name="three" unicode="3" horiz-adv-x="385" 
d="M135 676q13 4 21 4q9 0 28 -4q39 -9 39 -20l-1 -1v-1q-2 -4 -19 3q-14 4 -24 4q-45 0 -79 -39q-11 -12 -14 -19t-3 -23q0 -33 21.5 -62t45.5 -29q19 1 50 18.5t42 34.5q12 16 12 54q0 10 -2 26t-2 19q0 13 9 13q7 0 11.5 -11.5t10.5 -47.5q5 -26 15 -67t17 -74.5
t12 -68.5q5 -28 5 -81q0 -70 -7 -91q-7 -20 -26 -47.5t-34 -39.5l-18 -13h-72q-72 0 -75 5q-2 4 -17 12q-12 6 -20.5 15t-8.5 15q0 4 4 4q10 0 35 -13q26 -13 38 -16t39 -3q42 0 60 5q39 11 65 64q12 25 13 87v26q0 46 -5 70q-3 15 -10 56q-2 22 -9 27t-4 10q1 1 1 7
q0 28 -8 42q-1 1 -3 1q-11 0 -59 -44q-9 -9 -17.5 -11.5t-33.5 -3.5q-3 0 -7 -0.5t-6 -0.5q-13 0 -31 14q-19 17 -35 46q-19 36 -19 60q0 19 10 33q10 16 31 34t34 22z" />
    <glyph glyph-name="four" unicode="4" horiz-adv-x="530" 
d="M100 126q0 29 -5 73.5t-5 75.5q0 79 -16 162q-6 36 -6 80q0 41 -8 105q-5 45 -5 62q0 11 8 11q9 0 24 -17q82 -90 98 -113q4 -5 14.5 -20.5t14.5 -20.5q4 -6 27.5 -45t36.5 -53q21 -24 42 -67q11 -21 29 -48q1 -1 27 -43t45 -69t25 -27h1q2 2 2 8q0 16 -7 65
q-3 19 -7 85.5t-9 88.5q-4 18 -8.5 111t-4.5 143q0 24 1 26q2 5 7.5 5t8.5 -4q3 -6 5 -122q2 -114 9 -155q9 -60 10 -89q3 -71 15 -155q6 -42 6 -63q0 -10 -8 -10q-14 0 -21 19q-1 5 -50 78q-39 58 -70 111q-54 93 -85 129q-14 16 -24 36q-8 14 -61 90q-12 18 -39.5 49
t-31.5 31q-3 0 -3 -13q0 -12 1 -21q4 -45 6 -86q2 -51 5 -54q3 -9 3 -24q0 -4 1 -17t3 -35t3 -37q19 -241 19 -267q0 -9 -4.5 -16t-11.5 -1q-7 7 -7 48z" />
    <glyph glyph-name="five" unicode="5" horiz-adv-x="417" 
d="M63 124q0 5 4 3q2 -4 -1 -6t-3 3zM255 693q0 2 2 2q3 0 3 -2q0 -3 -3 -3q-2 0 -2 3zM265 359q-24 12 -66 14h-22q-28 0 -53 -5q-11 -3 -11 -20q0 -11 10 -71q10 -58 13 -93q3 -31 7.5 -40.5t18.5 -9.5q8 0 23 3q47 8 92.5 34.5t61.5 54.5q6 10 6 28q0 22 -10 44
q-7 13 -28.5 31.5t-41.5 29.5zM297 701q4 3 9.5 4.5t9.5 -0.5t4 -8q0 -23 -73 -137q-47 -73 -47 -82q0 -5 -4 -5t-26 -32t-22 -38q0 -5 17 -3q3 1 12 1q48 0 95 -21q51 -25 77 -74q13 -24 13 -54q0 -22 -2.5 -30t-15.5 -23q-60 -72 -153 -88q-32 -5 -37 -5q-8 0 -19 6
q-9 5 -12 9.5t-3 15.5q0 21 -14 122q-15 107 -20 189q-9 165 -19 165q-2 0 -8 -8q-4 -6 -4 3l1 18q3 48 3 49q0 13 1.5 16.5t6.5 3.5q10 0 12 -26q3 -21 10.5 -60t10.5 -71q5 -55 9 -60q5 -5 1 -9q-2 -2 -2 -12q0 -24 6 -36q3 -3 5.5 -0.5t11.5 14.5q15 21 15 23q0 1 0.5 4
t0.5 4q0 3 12 13q9 8 19.5 23t22 34.5t17.5 27.5q69 109 69 122q0 7 10 15z" />
    <glyph glyph-name="six" unicode="6" horiz-adv-x="438" 
d="M56 697q2 5 6 5t8 -3.5t5 -9.5q2 -12 8.5 -69t7.5 -61q5 -23 5 -73q0 -34 5 -88.5t6 -80.5q3 -51 8 -51t19 34q20 49 51 82t61 39h6q17 0 38 -12.5t33 -29.5q25 -37 34 -66.5t16 -94.5q1 -9 2.5 -21t3.5 -25t3 -17q2 -8 2 -19q0 -13 -5 -13q-1 0 -5 2q-5 2 -12 53
q-14 94 -23.5 126.5t-32.5 62.5q-22 28 -49 28q-50 0 -93 -81q-36 -68 -39 -165q-3 -76 -15 -76q-6 0 -8 10t-4 52q-12 251 -18 260q-3 7 -5 76q-2 74 -9 122q-11 78 -11 94q0 8 1 10z" />
    <glyph glyph-name="seven" unicode="7" horiz-adv-x="439" 
d="M56 681q-2 6 -0.5 8t8.5 2q11 0 11 -5q0 -6 10.5 -18.5t15.5 -12.5q7 0 18 -26q24 -55 55.5 -108t39.5 -53q1 0 1 1q1 3 8 13q7 7 45 83q62 121 71 121q3 0 7 -11q0 -1 0.5 -3t0.5 -3q0 -10 -11 -25q-8 -11 -51.5 -94t-52.5 -103q-5 -10 -5 -13q0 -6 11 -25
q17 -31 31 -61q8 -16 21.5 -35.5t23.5 -37.5q10 -20 21 -38t24 -44q4 -9 9 -19t8 -17t4 -8q4 -7 4 -15q0 -10 -6 -15q-6 -6 -10 8q-2 14 -10 24q-5 6 -16 30q-5 14 -21 39t-20 35q-9 19 -23 37t-37 65q-21 43 -27 43q-7 0 -29 -46.5t-47.5 -108t-30.5 -71.5q-23 -48 -23 -54
l-1 -5l-5 6q-6 7 -6 17q0 14 15 44q23 49 38 88q19 40 27 66q10 30 40 80l11 19l-16 23q-9 13 -26.5 45t-26.5 45q-4 6 -25.5 48.5t-37.5 60.5q-14 16 -15 24z" />
    <glyph glyph-name="eight" unicode="8" horiz-adv-x="408" 
d="M324 267l-1 115l-36 2h-12q-33 0 -49 -3q-21 -3 -62 -3q-26 0 -33 -2t-18 -13q-20 -22 -31 -58q-6 -21 -6 -36q0 -18 13 -46q7 -15 36 -45q33 -34 57 -42q25 -9 42 -9q9 0 35.5 -3.5t39.5 -3.5q10 0 14 1q13 2 14.5 4.5t-0.5 12.5q-3 12 -3 129zM300 670q-13 1 -24 4
q-3 1 -13 1q-57 0 -99 -16q-43 -15 -67 -43q-8 -10 -17 -40q-9 -28 -9 -50q0 -3 0.5 -10t0.5 -11q2 -39 11 -54t38 -31l30 -16l47 3q31 3 73 3h13l38 -1l-2 69q-3 57 -3 129v60zM210 695q19 3 47 3q49 0 63 -7q10 -6 12 -17q1 -9 5 -235q3 -264 10 -278q8 -14 8 -41
q0 -7 -1 -9q-2 -6 -15 -6t-13 -5q0 -4 -24 -4q-69 0 -138 16q-31 6 -45 33q-7 12 -27 34q-21 23 -21 29t-9 22q-8 12 -8 23q0 9 3 30q4 31 16.5 60t23.5 37q10 6 10 12q0 8 -16 17q-17 11 -28 35q-10 21 -10 44q0 19 1 34q2 55 14.5 83.5t42.5 49.5q47 32 99 40z" />
    <glyph glyph-name="nine" unicode="9" horiz-adv-x="353" 
d="M141 674q30 12 35 12h1q13 0 34.5 -14.5t21.5 -24.5t-15 0l-8 6q-14 10 -24 10q-8 0 -13 -1q-21 -2 -46 -15q-44 -24 -44 -62q0 -21 14 -52q11 -22 21 -29.5t32 -7.5q3 0 10 0.5t11 0.5q35 3 52 13q22 14 27.5 25.5t7.5 51.5q2 41 4.5 51.5t9.5 10.5h4q9 -1 9 -35
q0 -5 -2 -71v-15q0 -36 7 -114q6 -65 10 -176q2 -62 2 -64q0 -16 -2 -20t-7 -4q-10 0 -12 6q-2 5 -9 137q-8 142 -11 158q0 5 -1.5 14.5t-1.5 12.5q0 5 1 6q2 7 0 14q-3 8 -14 0q-35 -22 -44 -22h-1q-1 1 -4 0.5t-5 -1.5q-6 -4 -40 -4q-25 0 -31.5 2.5t-17.5 13.5
q-16 16 -31 47t-15 46q0 58 85 94z" />
    <glyph glyph-name="colon" unicode=":" horiz-adv-x="236" 
d="M93 672q9 3 17 3q43 0 43 -70q0 -17 -3 -37q-2 -14 -6.5 -93t-10.5 -100q-6 -30 -6 -51q0 -25 -9 -59q-11 -44 -11 -60q0 -10 5 -10h1q8 2 27 2t30 -11t11 -30q0 -18 -13 -28.5t-35 -10.5q-9 0 -14 1q-14 1 -21 12.5t-12 39.5q-2 16 -2 23q0 30 16 89q4 18 4 41
q0 24 7 47q7 21 9 80q2 60 7 97q3 24 3 39q0 7 -11 1q-10 -5 -25 -5q-10 0 -15 3q-20 15 -20 45q0 33 34 42zM62 683q-2 -1 -5 0t-1 2q1 1 3 1q5 0 3 -3z" />
    <glyph glyph-name="semicolon" unicode=";" horiz-adv-x="325" 
d="M73 691q14 9 18 9q11 0 30.5 -15.5t27.5 -29.5q5 -10 5 -46q0 -45 -6 -72q-2 -8 -9.5 -37t-10.5 -42q-42 -158 -42 -195q0 -23 9 -42q9 -21 32 -37q27 -18 45 -24t48 -6q28 0 38 -3t10 -11q0 -7 -13 -7q-16 0 -31 -6q-18 -6 -68 -6q-70 0 -87 9q-10 5 -12.5 10t-2.5 22
q0 64 29 195q4 17 8.5 44t9 46t11.5 36q19 51 19 93v16l-22 -1h-9q-17 0 -30 8q-20 11 -20 32q0 9 1 15q4 23 7.5 30t14.5 15z" />
    <glyph glyph-name="question" unicode="?" horiz-adv-x="366" 
d="M77 670q1 5 5 5t7.5 -8.5t3.5 -19.5q0 -19 5 -36q1 -4 3 -13t4.5 -22t3.5 -20q11 -65 30 -77q9 -5 9 -10q0 -6 65 -69q50 -50 65 -71t25 -57l8 -29l-12 -27q-12 -25 -37.5 -49t-48.5 -31q-12 -4 -27 -4q-29 0 -58 17q-6 3 -23.5 11.5t-29.5 16.5t-16 16q-4 7 -4 11t4 4
t17 -8q70 -48 110 -48q23 0 48 16.5t42 43.5q13 19 13 30q0 7 -3 25q-4 28 -15 46t-44 49q-37 35 -74.5 77t-44.5 55q-9 20 -20.5 79.5t-11.5 86.5q0 8 1 10z" />
    <glyph glyph-name="A" unicode="A" horiz-adv-x="697" 
d="M230 662q26 28 35 28q17 0 56 -68q21 -36 28 -43q13 -14 46 -81q13 -27 17 -27q3 0 12 -21q10 -23 25 -47q8 -11 40 -63.5t44 -65.5q13 -15 27 -34t23 -33.5t23.5 -38t21.5 -33.5q12 -18 12 -27q0 -7 -7 -7q-8 0 -26 38q-12 26 -42 68t-43 54q-10 10 -35 50
q-45 73 -52 73q-10 0 -81 -70t-110 -119q-6 -7 -54 -59q-16 -19 -21 -19q-4 0 -4 14q0 13 29 43q33 35 46 51q19 23 84 89t81 79q15 12 15 18q0 3 -3 11q-4 10 -21 38q-15 22 -15 25q0 4 -19.5 38.5t-26.5 41.5t-21.5 32t-26.5 45.5t-16 20.5t-32 -28q-19 -20 -62 -52
q-50 -38 -95 -95q-9 -11 -12 -13t-7 1q-6 4 -6 9q0 4 14 24q17 23 46.5 53t55.5 49q34 24 57 51z" />
    <glyph glyph-name="B" unicode="B" horiz-adv-x="407" 
d="M232 -79q0 2 2 2q3 0 3 -2t-3 -2q-2 0 -2 2zM199 212q0 2 2 45t2 68q0 50 -7 50q-5 0 -15 -8q-11 -9 -41 -25q-27 -15 -37.5 -27t-20.5 -37q-7 -17 -7 -31q0 -24 26 -53q29 -30 70 -36q6 -1 14 -1q10 0 12 9t2 46zM272 663q-14 9 -31 9h-17v-123q0 -123 6 -123
q7 0 20.5 16.5t13.5 24.5q0 9 4 9q3 0 13 19t15 35q5 17 5 41q0 34 -8 60q-7 24 -21 32zM187 694q18 5 36 5q49 0 68 -22q13 -13 22.5 -44t9.5 -61q0 -16 -3 -30q-15 -56 -20 -63q-4 -5 -19 -34q-14 -25 -34 -38l-23 -14l-3 -112q-1 -36 -1 -90q0 -25 1 -26q1 -3 11 -3
q23 0 47 11q14 8 40 34q27 27 29 27q3 0 3 -11t-17 -32t-35 -33q-19 -12 -65 -24q-13 -4 -13 -10q0 -5 -10.5 -5t-14.5 5q-2 3 -32 9q-42 9 -76 46.5t-34 74.5q0 16 11 42t23 39q16 16 40 28q17 8 48 30l24 16l1 25q0 16 2 128l2 101h-11q-11 0 -31.5 -14t-25.5 -25
q-4 -10 -11 -11t-10 7v2q-1 1 -1 2q0 22 29 42q13 9 22 18q4 6 21 10z" />
    <glyph glyph-name="C" unicode="C" horiz-adv-x="573" 
d="M253 700q11 4 31 4q32 0 70 -8.5t56 -20.5q67 -48 99 -139q9 -25 9 -36t-9 -11q-10 0 -10 12q0 13 -11 42t-24 52q-13 22 -37 42.5t-44 25.5q-3 1 -17.5 5.5t-20.5 6.5q-19 6 -44 6q-69 0 -114 -36q-31 -24 -61.5 -63.5t-42.5 -71.5q-10 -28 -10 -75q0 -49 5 -67
q5 -15 25.5 -48t37.5 -52q4 -4 11 -14l8 -10q6 -9 11 -9t20 21q27 42 38 42q6 0 6 -4q0 -9 -21 -36q-20 -27 -20 -32q0 -2 -40 -42q-39 -39 -57 -68q-17 -26 -24 -26q-4 0 -4 10q0 12 16 35.5t35 41.5q16 16 19 23t7.5 13t4.5 9q0 6 -15 24q-52 63 -70 112q-9 25 -11 71
q-1 10 -1 25q0 23 10 57q11 39 28 61q33 48 71 82.5t62 38.5q21 5 28 7z" />
    <glyph glyph-name="D" unicode="D" horiz-adv-x="490" 
d="M101 -79q0 2 2 2t2 -2t-2 -2t-2 2zM91 680q17 7 54 7q22 0 37 -3q16 -4 53 -24t54 -34q22 -19 47 -51t39 -59q13 -27 21 -32q6 -3 6 -15q0 -15 6 -28q9 -22 24 -107q5 -27 5 -144q0 -53 -2 -63q0 -1 -0.5 -3t-1 -2.5t-1.5 -2t-2.5 -2l-4.5 -1.5t-6.5 -1t-9.5 -0.5
t-14 -0.5h-18q-67 0 -126 1q-105 0 -113 -4q-8 -5 -25 -5q-16 0 -28.5 5t-12.5 12v8q0 11 -3 26q-15 72 -15 113q0 11 2 13q3 4 5 4q7 0 15 -55q14 -95 21 -102h2q4 0 30 4q29 6 158 6q128 0 132 4q3 3 3 45q0 92 -7 141q-11 82 -25 118q-27 65 -63 112.5t-72 66.5
q-18 10 -20 13q-4 7 -38 15.5t-54 8.5h-4q-30 -2 -38 -2q-27 0 -27 6q0 4 17 12z" />
    <glyph glyph-name="E" unicode="E" horiz-adv-x="541" 
d="M212 665q6 9 18 -9q8 -13 9 -58q2 -48 7 -90q3 -26 3 -36q0 -12 -3 -15q-5 -7 -1 -9q5 -2 5 -33q0 -29 10 -29q5 0 24 8t77 13q44 4 52 4q35 0 58 -22q17 -16 11 -23q-4 -4 -7 -3.5t-13 8.5q-18 14 -25 16q-6 2 -18 2q-73 0 -124 -17q-25 -8 -32.5 -12.5t-7.5 -15.5
q0 -8 3 -22q6 -31 8 -99q3 -86 18 -97q4 -3 21 -3q22 0 49.5 4.5t34.5 9.5q5 5 15 0q8 -5 22 -5q7 0 13 -5t6 -11q0 -2 -2 -6q-2 -3 -51 -7q-64 -5 -90 -7q-28 -2 -38 -2q-21 0 -59.5 3.5t-60.5 4.5q-89 3 -89 19q0 4 6 10q11 9 39 9q11 0 14 -3q11 -9 97 -9q26 0 31 3
q5 5 5 46q0 49 -6 107.5t-13 65.5q-4 4 -17 0q-24 -8 -72 -8q-14 0 -18 1q-12 2 -32 27q-16 20 -21.5 39t-5.5 59q0 25 15 54q25 46 44 46q5 0 7 -3t0 -8t-7 -11q-23 -26 -30 -65q-2 -16 -2 -25q0 -46 22 -76l13 -17l39 2q41 4 52 10l12 7l-2 38q-6 85 -11 171q-2 58 -2 66
v8z" />
    <glyph glyph-name="F" unicode="F" horiz-adv-x="496" 
d="M226 253q-7 6 -59.5 33.5t-60.5 27.5q-4 0 -1 -15q4 -30 5 -67q5 -101 13 -106q5 -3 39 -3q35 0 57 11q20 10 48.5 36t28.5 34q0 5 -30 23q-31 19 -40 26zM228 645q-27 7 -77 7q-28 0 -39 -2q-4 -1 -10 -2l-9 -1.5t-6.5 -1.5t-4.5 -2.5t-1 -3.5q0 -15 3 -40
q15 -124 17 -190l2 -61l15 -13q10 -9 61.5 -36t61.5 -35q19 -16 43 -29q18 -11 23 -11q3 0 8 6q12 17 20.5 64.5t8.5 101.5q0 104 -42 173q-40 68 -74 76zM103 677q5 2 30 2q58 0 83 -7q36 -9 63 -37q86 -91 86 -239q0 -31 -5 -69q-12 -83 -23 -105q-5 -9 -4 -12.5t10 -11.5
q17 -14 75 -53q21 -14 21 -18t-13 -4t-15 4q-1 6 -43.5 33.5t-49.5 27.5q-4 0 -11 -16q-5 -12 -18 -20t-23 -19q-12 -14 -35 -24t-53 -10h-22q-49 0 -55 6q-6 4 -9 62q-1 9 -3 57t-4 69q-5 63 -5 106q0 32 -10 124t-11 103l-3 47h18q17 0 29 4z" />
    <glyph glyph-name="G" unicode="G" horiz-adv-x="686" 
d="M55 680q1 6 9 6q10 0 15 -40.5t13 -202.5q7 -131 26 -191q7 -24 47 -62q32 -31 54 -42.5t51 -11.5q11 0 27 6t28 13t30.5 18t24.5 14q21 12 37 45q32 63 38 123q11 105 25 148q3 10 9 71t6 81v5q-2 2 -23 -1q-24 -4 -41 -4q-13 0 -16 1.5t-2 8.5q1 10 17 13.5t61 3.5
q138 0 138 -21q0 -5 -3.5 -6t-18.5 -1h-27l-47 1l3 -15q5 -20 5 -49q2 -46 8 -82q5 -35 5 -182q0 -224 -8 -226h-3q-9 0 -11.5 26.5t-4.5 123.5q-2 131 -4 169q-2 30 -6.5 70t-6.5 40t-6 -19.5t-4 -30.5v-3l1 -2q2 -6 -5 -11t-7 -23q0 -17 -5 -44t-6 -44
q-4 -55 -28.5 -108.5t-61.5 -76.5q-30 -19 -49 -32q-30 -21 -64 -21q-17 0 -45 7q-29 7 -55 33q-23 23 -47 43q-15 13 -20.5 21.5t-12.5 30.5q-13 48 -15 77q-3 21 -6.5 44t-5.5 41t-3 47q-1 20 -8 131q-3 44 -3 73v8v7z" />
    <glyph glyph-name="H" unicode="H" horiz-adv-x="531" 
d="M396 541q-111 0 -182 1q-19 0 -49.5 0.5t-41.5 0.5l-39 -1q-1 0 -1 -14q0 -9 0.5 -28.5t2 -65t2.5 -87.5q2 -64 3.5 -76.5t8.5 -14.5q9 -2 23 0q27 3 162 5q148 2 154 10q6 7 6 97q0 98 3 132l2 42zM450 690q4 15 10 15q9 0 9 -20q0 -5 -2 -19q-2 -20 -2 -257
q0 -240 8 -274q5 -20 5 -35q0 -14 -8 -14q-12 0 -12 34q0 15 -10 19q-1 0 -2 1q-3 1 -4 2t-2 3.5t-1 6.5t0.5 9.5l1.5 16.5t2 20q2 20 2 22q0 11 -8 16q-11 4 -12 3q-2 -2 -84 -5t-125 -3h-10h-17q-23 0 -57 -2l-42 -3l3 -56q2 -40 2 -41q0 -15 -5 -15h-2l-2 1h-1
q-7 1 -9 19q-3 28 -10 285l-1 54q-1 61 -7 136q-4 43 -4 58q0 10 3 10q15 0 18 -65q2 -40 6 -42t178 -4q172 0 182 -4q1 -1 3 -1q4 0 4 27v28v26q0 36 2 48z" />
    <glyph glyph-name="I" unicode="I" horiz-adv-x="499" 
d="M367 238q-1 1 0.5 2t3.5 1q5 0 3 -3q-4 -2 -7 0zM147 668q17 2 34.5 8t38.5 6q18 0 25 -4t28 -25q29 -29 37 -56q7 -22 7 -74q0 -53 -8 -112q-10 -71 -34 -124q-13 -30 -13 -32q0 -5 -34 -48t-49 -57q-13 -11 -13 -15q0 -2 12 -2q28 0 129 12q95 12 107 12q11 0 17 -4
q11 -7 11 -26q0 -5 -2 -5h-8q-7 -1 -18.5 -1.5t-22.5 -0.5q-56 -2 -99 -8q-52 -7 -71 -7q-16 0 -57 -7t-53 -12q-7 -3 -14 -3q-17 0 -17 15q0 11 17 18q15 7 47 37t62 65q91 108 91 296v25q-1 42 -7.5 60t-25.5 38q-20 20 -42 20q-13 0 -55 -10q-79 -20 -90 -53
q-5 -17 -15 -17q-5 0 -5 9t7 27.5t11 18.5t19 15q18 15 53 21z" />
    <glyph glyph-name="J" unicode="J" horiz-adv-x="456" 
d="M179 460q0 5 7 24t7 25q0 7 -3.5 7.5t-18.5 -1.5q-20 -2 -35 -8q-30 -10 -61 -10q-16 0 -17 5q-1 2 -1 5q0 10 43 18q42 8 48 11q14 5 39 8q21 2 25 4.5t8 16.5q4 15 12 30q1 1 11 25.5t20 47.5t12 23q4 0 4 -10q0 -20 -9 -38q-13 -29 -23 -57l-13 -36l15 -3h11
q30 0 70 3q28 3 46 3q20 0 23 -3t3 -6q0 -11 -26 -14q-110 -11 -111 -11q-2 0 -6 0.5t-5 0.5q-6 1 -15 1q-14 0 -21 -11.5t-20 -51.5q-7 -23 -21 -54q-11 -24 -9 -26h1q6 0 30 12q47 22 76 22q13 0 28 -5q17 -5 37.5 -17t20.5 -17q0 -3 11 -19q30 -45 30 -90q0 -41 -27 -95
q-9 -18 -23 -25.5t-43 -7.5q-3 0 -10 0.5t-11 0.5q-36 1 -51.5 7.5t-37.5 28.5q-20 20 -20 34q0 18 6 18q3 0 8 -11q6 -17 29.5 -32t48.5 -19q10 -2 32 -2q41 0 51 9q10 7 20 39.5t10 55.5q0 34 -18.5 66t-46.5 46q-23 10 -42 10q-28 0 -64 -18q-44 -22 -54 -26
q-13 -5 -16.5 -4.5t-7.5 5.5q-6 8 -4 10q48 98 48 106z" />
    <glyph glyph-name="K" unicode="K" horiz-adv-x="479" 
d="M51 475q0 2 2 2q3 0 3 -2t-3 -2q-2 0 -2 2zM237 651q-2 2 -45 4h-21q-71 0 -81 -10q-4 -4 -6 -84l-2 -79h24q33 0 78.5 4.5t48.5 7.5q6 6 6 124q0 31 -2 33zM63 682q15 1 38 5.5t40 4.5h13q70 -2 89 -2q42 0 81 3q36 2 45 2q47 0 52 -12q1 -2 1 -5q0 -9 -56 -12
q-75 -3 -80 -15q-2 -4 -11.5 -3t-10.5 -3q-2 -6 -2 -79v-73h65q45 0 56 -1.5t16 -7.5q13 -19 -3 -19q-18 0 -69 -3l-62 -4v-13q0 -23 11 -83.5t19 -82.5q23 -66 61 -108q11 -13 40 -28q27 -13 27 -17q0 -2 -3 -7q-3 -4 -10 -4q-22 0 -49 16q-8 6 -33 42.5t-40 64.5
q-10 18 -22.5 65t-16.5 79q-7 68 -21 68q-10 0 -24 8q-13 5 -25 5t-39 -3q-45 -3 -52 -7t-12 -233q-1 -121 -9 -129q-6 -6 -10 -2q-2 4 -2 67q0 52 1 83q7 324 9 386q0 30 -3 42q-4 15 1 15z" />
    <glyph glyph-name="L" unicode="L" horiz-adv-x="493" 
d="M55 694q1 5 9 3q7 -3 16 -66t9 -111q0 -31 6 -37t0 -10q-4 -3 -4 -33q0 -43 8 -117q4 -46 6 -111q2 -73 4 -74q3 -3 11 2q7 4 45 10q21 3 43.5 8t36.5 6.5t41 1.5q8 0 68 -2q7 0 17 -0.5t13 -0.5q17 0 21 6.5t5 31.5v9q1 38 4 48t11 10t10.5 -10t2.5 -41v-25
q-3 -64 -12 -64q-2 0 -7 3q-8 6 -40 6q-12 0 -39.5 1t-40.5 1q-33 0 -52 -5q-27 -9 -58 -9q-23 -1 -50 -7.5t-35 -13.5q-6 -6 -13 1q-6 6 -9 95q-2 68 -8 133t-8 137q-4 120 -9 168q-3 26 -3 45q0 2 1 11z" />
    <glyph glyph-name="M" unicode="M" horiz-adv-x="831" 
d="M500 579q0 2 -14 26.5t-14 27.5q0 7 5 7t18.5 -14.5t16.5 -23.5q1 -7 27 -60q45 -98 55 -116q12 -20 43.5 -78.5t31.5 -61.5q0 -5 24 -44q81 -140 81 -159q0 -2 -1 -3h-1l-2 -1q-7 0 -20.5 22t-49.5 91q-12 24 -17 29q-7 9 -47.5 88.5t-53.5 100.5q-20 32 -29 53
q-3 6 -14.5 31t-17.5 38q-4 10 -10 22.5t-9 18.5zM187 651q8 17 12 17t28.5 -27.5t50.5 -61.5q22 -29 56.5 -68t38.5 -39q3 0 14 26t23 57t13 33q0 1 8.5 22.5t16 36t13.5 15.5h2q5 0 5 -7q0 -9 -9 -29q-6 -14 -30 -79q-13 -35 -30 -81.5t-26 -71.5q-7 -18 -26 -85
q-10 -35 -30 -116q-30 -127 -45 -132q-2 -1 -3.5 1t-1.5 6q0 7 9.5 48t14.5 58q3 10 10 41q3 16 15.5 62t16.5 62q3 17 12 39t13 39l6 26l-47 56q-47 57 -71 91q-30 44 -39 44q-5 0 -9 -6q-8 -9 -15 -41q-10 -35 -21 -55q-39 -69 -69 -182q-15 -57 -29 -57q-9 0 -9 9
q0 6 6 26q3 7 9 26.5t8 27.5q21 74 59 149q6 11 50 120z" />
    <glyph glyph-name="N" unicode="N" horiz-adv-x="455" 
d="M60 669q3 3 5 3q7 0 59 -86q7 -12 19 -31.5t14 -22.5q9 -13 9 -16q0 -7 25.5 -40t30.5 -33q8 0 59 94q15 29 41 63t30 47q5 19 14 19q3 0 5 -3q1 -1 1 -6q0 -28 -47 -90q-5 -6 -24 -39q-13 -26 -51 -83l-19 -28l11 -15q14 -19 23 -38q12 -22 57 -96.5t54 -90.5
q13 -26 19 -32q4 -4 4 -15t-6 -11q-10 0 -21 20q-43 80 -89 150q-30 45 -38 61q-6 14 -59 92q-48 72 -69 111q-20 38 -40 69q-20 30 -20 40q0 4 3 7z" />
    <glyph glyph-name="O" unicode="O" horiz-adv-x="482" 
d="M397 632q0 13 10 13q6 0 7.5 -4t1.5 -18q0 -15 4 -81q5 -57 9 -235q3 -90 3 -131q0 -55 -8 -55q-2 0 -7 5q-7 7 -11 181q-4 173 -6 178q-3 3 -3 115v32zM56 632q3 11 9.5 12.5t9.5 -7.5q2 -10 2 -97q0 -35 7 -219q8 -145 10 -160l3 -15l21 3q56 7 57 7q7 0 7 -4
q0 -12 -27.5 -20.5t-55.5 -8.5q-17 0 -25 5q-6 3 -8 45q0 10 -7 150q-6 105 -6 221q0 76 3 88z" />
    <glyph glyph-name="P" unicode="P" horiz-adv-x="597" 
d="M220 625q10 9 51.5 22.5t66.5 13.5q7 -2 43.5 -6t45.5 -7q19 -5 44 -31t31 -46q5 -19 10 -24q5 -6 11.5 -27.5t6.5 -32.5q0 -15 7 -39q7 -28 7 -118q0 -33 -2 -36q-3 -3 -5 -31q-4 -43 -19.5 -87t-32.5 -62q-13 -14 -38.5 -27.5t-38.5 -13.5q-4 0 -5 1q-7 4 -17 -1
q-9 -5 -64 -7h-24q-57 0 -97 26q-20 13 -50 65q-28 50 -31 71q0 2 -0.5 5.5t-0.5 4.5q0 9 4 9q6 0 22 -32q24 -51 34 -66.5t28 -30.5q24 -20 51.5 -27t82.5 -7q50 0 76 8t48 29q22 22 24 27q5 9 16.5 56.5t15.5 76.5q5 40 5 86q0 63 -7 77q-6 12 -6 30q0 16 -14.5 59
t-24.5 57q-15 20 -34.5 29t-57.5 13q-25 3 -37 3q-16 0 -56 -10q-38 -9 -49.5 -14.5t-44.5 -26.5q-30 -21 -49 -31q-45 -27 -54 -65q-7 -35 -7 -138q0 -14 0.5 -54t0.5 -67v-64q0 -75 -6 -81q-5 -5 -8 -5q-6 0 -7.5 28t-3.5 141q0 159 -6 193q-2 11 -2 63q0 136 7 143
q3 3 5 3q8 0 8 -58q0 -51 4 -55h1q5 0 30 17.5t27 17.5q7 0 53 36q11 9 18 9q6 0 14 8z" />
    <glyph glyph-name="Q" unicode="Q" horiz-adv-x="692" 
d="M301 611q-25 6 -36 6q-13 0 -40.5 -5.5t-34.5 -10.5q-40 -25 -50.5 -38.5t-27.5 -54.5q-40 -89 -40 -168q0 -57 23 -109q10 -21 37 -49t41 -32q17 -6 31 -12q37 -17 101 -17q5 0 16 0.5t17 0.5q88 3 140 25l22 9l-2 93q-1 75 -8.5 115t-27.5 84q-9 18 -29 63
q-37 78 -132 100zM498 616q1 42 6 42h1q5 -1 8 -84q2 -79 8 -100q8 -32 8 -127q0 -58 -2 -86q-3 -53 -3 -77q0 -4 1 -4q7 0 35 17.5t47 33.5q22 18 25 18t3 -8q0 -11 -20.5 -31t-53.5 -40q-37 -21 -43 -29t-8 -35q-3 -26 -8 -26t-8 21l-5 21h-1l-34 -10q-34 -11 -71 -13
q-62 -2 -74 -2q-61 0 -124 21q-22 8 -32 14t-25 22q-44 48 -61 97q-13 37 -13 88t8.5 90t33.5 97q19 44 46 68t70 35q13 4 40 4q32 0 63.5 -6.5t42.5 -15.5q10 -7 18 -10q16 -5 34.5 -23.5t30.5 -41.5q16 -32 39.5 -90t23.5 -67q1 -7 3 -7q2 2 2 22q0 31 -5 93q-6 71 -6 105
v24z" />
    <glyph glyph-name="R" unicode="R" horiz-adv-x="578" 
d="M424 676q-37 6 -129 6q-111 0 -137 -8q-11 -4 -11 -17q0 -22 6.5 -81.5t9.5 -63.5q1 -4 21 -4q3 0 12 0.5t14 0.5h16q28 0 32 -7q6 -7 2 -11q-8 -8 -71 -13q-20 -4 -21 -8q0 -18 5 -65.5t8 -50.5q5 -2 13 2q10 6 49 8q82 7 124 27q34 17 69 42.5t45 41.5q22 32 22 79
q0 64 -37 103q-14 14 -42 19zM150 702q3 1 123 1h35.5t28.5 -0.5t21.5 -0.5t18 -1t13.5 -1t12.5 -2t11.5 -2.5t13.5 -3.5t15.5 -4q27 -5 47.5 -34.5t28.5 -73.5q4 -23 4 -36q0 -10 -6 -36q-10 -36 -15 -41q-8 -10 -8 -13q0 -8 -58 -51q-21 -14 -40 -25q-62 -36 -130 -38
q-15 0 -26 -11q-10 -8 -18 -8q-2 0 -18 2l-26 3l4 -61q3 -58 3 -129q0 -92 -4 -93h-2q-6 0 -8 20t-6 100q-4 105 -9 148q-4 48 -4 75q0 34 -5 61l-5 29h-40q-40 0 -43 7q-2 6 -2 8q0 12 26 12q11 0 38 3l17 3l-3 44q-2 48 -7 76q-7 45 -7 57q0 9 7 10q3 1 4 1q3 1 7 2t7 2
t4 1z" />
    <glyph glyph-name="S" unicode="S" horiz-adv-x="589" 
d="M375 690q20 4 67 4q49 -1 49 -10q0 -6 -44 -10q-144 -12 -171 -13q-91 -3 -116 -22q-8 -5 -8 -71q0 -33 2 -44q8 -53 37 -117q4 -8 14 -30t14 -31q23 -53 37 -53q5 0 78.5 77t75.5 85q3 9 18 9q11 0 14 -2t3 -11q0 -6 -8 -15t-39 -38q-19 -18 -52 -54t-41 -47
q-5 -8 -19 -15q-13 -7 -13 -14q0 -5 21 -35t43 -56q17 -20 50.5 -42.5t63.5 -33.5q24 -8 32 -8q4 0 12 2l17 4l2 102q1 101 7 101q7 0 11 -7q3 -7 3 -98q0 -61 -1 -92l-1 -30l-38 -2l-37 -3l-46 25q-40 23 -70 48q-26 22 -29 22q-4 0 -4 7q0 6 -23 35t-29 30h-1
q-17 0 -68 -55q-23 -24 -48.5 -44.5t-33.5 -20.5h-1q-6 3 -6 7q0 13 54 66q52 52 66 62q12 9 12 20q0 6 -4 10q-3 5 -29.5 62t-28.5 60q-16 28 -32 95q-7 29 -7 86q0 47 5 61t24 21q15 6 24 11q11 4 91 6t101 6zM102 719q-2 -1 -5 0t-1 2q1 1 3 1q5 0 3 -3zM58 720q0 2 2 2
q3 0 3 -2t-3 -2q-2 0 -2 2z" />
    <glyph glyph-name="T" unicode="T" horiz-adv-x="472" 
d="M380 674q10 21 14 21q15 0 16 -107q0 -27 4.5 -173.5t4.5 -182.5q0 -9 2 -69v-31q0 -17 -1.5 -20.5t-6.5 -4.5h-2q-7 0 -11 41q-4 46 -4 102q0 22 -5 160q-3 83 -3 165v29q0 36 -3 36q-5 0 -5 -8q0 -10 -49.5 -54t-88.5 -68q-63 -40 -127 -48q-26 -2 -31 -2q-22 0 -26 10
q-1 2 -1 5q0 14 30 14q36 0 78 15t71 38q17 14 34 25q55 36 74.5 55.5t35.5 51.5z" />
    <glyph glyph-name="U" unicode="U" horiz-adv-x="625" 
d="M368 656q-60 10 -105 10q-30 0 -45 -4q-28 -7 -61 -30q-23 -16 -31.5 -25t-17.5 -28q-27 -54 -27 -93q0 -14 -6 -26q-3 -6 -3 -19t3 -40q5 -50 23 -81.5t65 -75.5q37 -35 68.5 -51.5t73.5 -24.5q3 -1 11 -1q53 0 115 27q47 19 77.5 59.5t40.5 96.5q4 23 4 37q0 17 -4 50
q-7 57 -21 84q-32 64 -35 67q-6 7 -35 27.5t-33 20.5t-10 6t-47 14zM173 664q35 22 108 22q23 0 33 -2q4 0 13.5 -2t23.5 -4t24 -4q47 -8 67 -22q7 -5 19.5 -12.5t19.5 -12.5t16.5 -12.5t16 -16t11.5 -19.5q23 -46 30 -69t14 -73q3 -19 3 -39q0 -100 -63 -171
q-22 -25 -62.5 -45t-83.5 -28q-35 -7 -65 -7q-20 0 -23 4q-2 5 -24 10q-52 15 -108 67q-44 40 -54 62q-8 21 -16 31q-7 7 -14 42q-5 21 -5 58q0 62 17.5 122.5t42.5 79.5q3 2 12 9.5t13 10.5q13 11 16 11q5 0 18 10z" />
    <glyph glyph-name="V" unicode="V" horiz-adv-x="634" 
d="M166 768q17 -14 54 -116l14 -41l94 1q87 0 165 6q40 3 59 3q27 0 27 -10q0 -17 -212 -20q-119 -3 -120 -8q-3 -8 4 -26q1 -2 7 -22.5t11.5 -37.5t8.5 -17q4 0 4 -9q0 -11 18 -52q17 -39 30 -82q39 -133 49 -133q9 0 35.5 33.5t47.5 71.5q26 47 54.5 85t38.5 40h3
q10 0 10 -8q0 -9 -10 -20q-51 -60 -80 -117q-11 -23 -38.5 -59t-43.5 -46q-11 -8 -15 -13q-4 -6 -12.5 -6t-10.5 6q-14 44 -44 147q-16 58 -35 97q-14 31 -30.5 79.5t-16.5 58.5q0 8 -8 24l-7 14l-74 -2q-24 -1 -54 -1q-20 0 -25.5 1.5t-5.5 7.5q0 7 14 9t67 2q63 0 69 2
q1 2 1 3q0 11 -14.5 53t-28.5 70q-10 20 -10 29q0 11 10 3z" />
    <glyph glyph-name="W" unicode="W" horiz-adv-x="812" 
d="M546 697q0 -3 -29.5 -67.5t-29.5 -66.5q0 -4 -16 -43.5t-23 -52.5q-5 -9 -22.5 -60t-21.5 -60l-8 -17l14 -9q11 -7 30.5 -12t30.5 -11q81 -37 89 -37q4 0 6 2q4 4 27.5 71.5t42.5 129.5q8 30 23.5 65.5t22.5 54.5q14 39 32 69q19 33 22 42q1 5 5 7.5t7.5 1.5t5.5 -6v-2
q1 -1 1 -2q0 -13 -25.5 -60t-28.5 -58q-6 -16 -14.5 -37.5t-15.5 -40.5t-15 -43q-69 -211 -105 -297q-16 -38 -22 -47.5t-15 -9.5q-8 0 -9 8.5t7 15.5q9 7 18 26q8 17 18.5 48t10.5 36q0 4 -22.5 13t-24.5 9q-8 0 -22 8q-16 9 -56.5 25t-47.5 16h-1q-5 -2 -59 -157
q-20 -54 -28 -56h-1q-7 0 -7 12q0 15 9 32q7 13 18 49t15 46q8 21 25 68t23 53q7 8 23 49t17 54q2 17 6 21q14 17 37 81q12 33 37.5 89.5t37.5 56.5q8 0 8 -7zM291 703q6 6 12 6q7 0 7 -10q0 -8 -4 -16q-6 -11 -6 -19q0 -7 -25 -57q-25 -55 -30 -70q-4 -13 -24.5 -57.5
t-24.5 -56.5q-8 -25 -20 -50q-68 -145 -92 -231q-10 -39 -22 -39q-3 0 -5 2t-2 7q0 6 9 38q9 29 18.5 50.5t18.5 48.5q8 20 34.5 82t36.5 90q3 8 8 19.5t9.5 22.5t6.5 15q42 107 65 154q25 52 25 59t5 12z" />
    <glyph glyph-name="X" unicode="X" horiz-adv-x="672" 
d="M222 663q-27 10 -50 12q-3 0 -7.5 0.5t-6.5 0.5q-14 0 -33 -13q-22 -14 -35 -41t-13 -56q0 -27 14 -49q30 -45 81 -45q29 0 31 4t14 4q26 0 61 43q17 22 17 38v10q0 24 -7 40q-5 9 -21.5 28t-20.5 19l-1 -1q0 -1 -3 -0.5t-8.5 2.5t-11.5 4zM137 695q13 5 43 5t50 -5
q18 -5 26 -16q7 -11 21 -23q26 -23 35 -69q3 -16 3 -28q0 -21 -12 -40q-7 -11 -7 -17t47 -46q45 -38 71 -66l24 -26l48 49q47 49 47 55q0 11 14 11t14 -10q0 -5 -18.5 -27.5t-31.5 -34.5q-8 -7 -34 -35l-22 -25l80 -80q80 -80 80 -87q0 -5 -3 -5q-10 0 -65 55
q-98 95 -109 95q-4 0 -36.5 -38t-61.5 -77q-23 -30 -31 -30q-3 0 -6 4q-1 1 -1 3q0 12 61 88q4 5 12 14q40 51 41 62q0 6 -21 29q-13 14 -24 24.5t-17.5 16t-20.5 16.5t-26 21l-31 26l-13 -9q-37 -27 -95 -27q-31 0 -49 12t-19 15q0 4 -18 27q-26 35 -26 71q0 30 19 68
q8 15 26.5 31t35.5 23z" />
    <glyph glyph-name="Y" unicode="Y" horiz-adv-x="429" 
d="M60 505q-7 133 -7 169q0 23 1 28q4 8 11 6q8 -1 9 -29q2 -56 7.5 -124.5t7.5 -71.5q3 -3 1 -17v-5q0 -8 5 -8q8 0 20 12q18 17 43 34q111 76 160 122q30 27 40 27q8 0 8 -7t-25.5 -31.5t-59.5 -50.5q-13 -9 -113 -84l-79 -59l2 -35q2 -42 7 -109q4 -74 7 -81t8 -7
q6 0 20 14q8 9 66 51q91 65 138 107q23 22 32 22q5 0 5 -8q0 -7 -25 -33.5t-44 -40.5q-111 -80 -114 -80l-29 -25q-36 -34 -64 -34q-4 0 -6 1q-13 5 -24 238q-1 25 -4.5 53.5t-3.5 55.5z" />
    <glyph glyph-name="Z" unicode="Z" horiz-adv-x="621" 
d="M483 154q1 2 17 2q22 0 43.5 -4.5t21.5 -13.5q0 -3 -4 -7q-6 -6 -139 -7q-116 0 -174 -5q-45 -4 -143 -11q-6 -1 -14 -1q-12 0 -26 11q-13 12 -9 13q1 1 4 1q6 0 179 14q42 5 144 5q97 0 100 3zM275 479q1 3 86 3q119 0 131 -4q6 -2 4 -12q-1 -8 -13.5 -9.5t-99.5 -3.5
q-133 -4 -194 -7q-58 -2 -61 -2q-24 0 -28 6q-3 4 -3 7q0 16 53 16q21 0 35 -4h4q7 0 29 4q13 4 32 4h7q16 -2 18 2zM468 712q12 2 17 2q31 0 34 -18q1 -7 -2.5 -8t-20.5 -1q-25 0 -191 -16q-58 -6 -106 -6q-56 -2 -64 -6q-10 -5 -27 2q-17 8 -17 13q0 12 12 14.5t64 4.5
q21 0 161 9q118 6 140 10z" />
    <glyph glyph-name="a" unicode="a" horiz-adv-x="729" 
d="M375 470q3 5 6 5q6 0 17 -34q11 -35 17 -96q4 -44 7.5 -57t19.5 -41q36 -66 80 -86q24 -12 79 -12q22 0 37 3t23 3q12 0 12 -5q0 -2 -3 -5q-5 -7 -17 -7t-24 -6q-19 -10 -46 -10q-30 0 -60.5 12.5t-49.5 33.5q-50 56 -80 131q-18 44 -24 44q-3 0 -4 -7q-2 -10 -21 -50
q-16 -34 -42 -67.5t-39 -37.5q-5 -1 -24 -13q-65 -48 -136 -48q-49 0 -49 16q0 10 9 10q2 0 20 -4q11 -3 24 -3q59 0 110 38q15 11 20 11q8 0 38.5 32.5t41.5 52.5q18 31 30.5 73t12.5 69q0 30 15 55z" />
    <glyph glyph-name="b" unicode="b" horiz-adv-x="493" 
d="M173 418q0 30 -4 30q-46 -7 -73 -62q-15 -30 -15 -47q0 -13 1 -23q2 -30 7 -42.5t27 -43.5q14 -19 32 -34.5t26 -15.5h1q1 1 2 1q2 1 2 25q0 50 -5 144q-1 20 -1 68zM177 585q0 110 7 110t9 -18t4 -92q2 -98 2 -101q0 -7 3.5 -10t16.5 -7q16 -5 37 -21t21 -23q0 -9 -8 -4
l-10 7q-10 7 -30 14.5t-29 7.5q-5 0 -5 -34q0 -3 2 -101q3 -136 9 -139q8 -4 16 -4q56 0 167 70q41 26 44 26q4 0 4 -3q0 -7 -16 -23.5t-32 -25.5q-18 -10 -26 -17q-14 -11 -62 -29.5t-69 -19.5q-27 -2 -32 -7q-5 -4 -18 7q-16 14 -33 23q-28 16 -55.5 54.5t-35.5 71.5
q-4 17 -4 32q0 17 13 52q22 60 44 72l20 11q20 11 31 11l15 1v109zM72 693q0 2 2 2t2 -2q0 -3 -2 -3t-2 3z" />
    <glyph glyph-name="c" unicode="c" horiz-adv-x="476" 
d="M194 494q9 4 36 4q36 0 53 -7q18 -6 26 -6q23 -2 61.5 -42t47.5 -73q4 -13 4 -54q0 -64 -7 -97q-8 -36 -27 -66t-33 -30q-7 0 -9.5 3t0 7.5t8.5 7.5q8 5 25 39q23 47 23 125v20q-2 38 -11 57t-39 46q-27 25 -50 35t-58 13q-3 0 -8 0.5t-7 0.5q-29 0 -80 -34
q-28 -19 -40.5 -38t-25.5 -64q-10 -36 -10 -49q0 -10 3 -33q6 -39 12 -52q5 -11 8 -24q4 -17 25 -39q14 -14 14 -20q0 -4 -4 -4q-12 0 -29 20q-16 19 -38 76q-7 18 -9 59q-1 9 -1 24q0 23 11 61q11 39 24 59t40 39q28 21 65 36z" />
    <glyph glyph-name="d" unicode="d" horiz-adv-x="449" 
d="M110 484q0 2 2 2q3 0 3 -2t-3 -2q-2 0 -2 2zM299 403q-24 9 -53 9q-55 0 -104 -31l-22 -11q-12 -6 -16 -11.5t-15 -31.5q-10 -24 -10 -48q0 -35 27 -71q30 -39 51 -51.5t55 -12.5q32 0 77.5 14t65.5 31q12 157 12 159q1 5 1 12q0 9 -20 20q-27 16 -49 23zM174 694
q7 4 21 4q30 0 74 -14.5t64 -31.5q11 -11 27.5 -38t24.5 -49t10 -37.5t2 -66.5q0 -75 -5 -97q-10 -52 -15 -207q-1 -41 -10 -42h-3q-13 0 -13 25v14l-24 -9q-79 -30 -119 -30q-31 0 -58 18q-58 40 -82 89q-14 29 -14 66q0 38 12 58q16 28 38 44t66 31q36 13 71 13
q38 0 76 -16q33 -13 44 -22q4 -4 8 -4q10 0 10 65v38q-1 76 -48 130q-30 36 -97 41q-12 1 -28 1q-18 0 -38 -10q-58 -30 -68 -57q-8 -21 -17 -21q-7 0 -8 13v6q0 21 22 42.5t77 53.5z" />
    <glyph glyph-name="e" unicode="e" horiz-adv-x="505" 
d="M205 391l-3 66l-18 1h-3q-43 0 -69 -31q-14 -17 -27 -60t-13 -71q0 -50 18.5 -88t48.5 -53q15 -8 41.5 -15.5t37.5 -7.5q8 0 8 9q0 2 -2 26q-1 27 -9.5 106.5t-9.5 117.5zM229 515q2 -8 2 -20q0 -9 3 -11t15 -2q14 0 24 -6.5t38 -32.5q21 -19 21 -29q0 -2 -3 -2
q-4 0 -7 2q-8 5 -21 16q-24 22 -49 25l-18 2l1 -38v-16q0 -21 -4 -21t-4 -13q0 -7 11 -142q7 -83 11 -87q2 -2 6 -2q5 0 55 12q14 4 26.5 13.5t12.5 16.5q0 4 11 10q8 4 33 43.5t25 49.5q0 7 6.5 10.5t10.5 -0.5q2 -1 6 -40q10 -110 10 -121q0 -30 -7 -31q-5 -1 -6.5 2.5
t-1.5 15.5q0 21 -7 63t-7 47q0 9 -8 -1l-5 -8q-23 -50 -47 -68q-5 -4 -11.5 -9.5t-11 -9t-5.5 -4.5q-4 -4 -28 -8q-32 -4 -40.5 -7.5t-11.5 -11.5q-8 -21 -18 -2q-4 7 -26 10q-48 6 -71 18t-48 44q-18 23 -24 38t-10 54q-3 21 -3 39q0 34 19 91q30 87 104 90q6 0 13 0.5
t12 1.5h4q1 0 1 7v23q0 6 5 7t10 -1.5t7 -6.5z" />
    <glyph glyph-name="f" unicode="f" horiz-adv-x="407" 
d="M211 449q-20 4 -40 4q-2 0 -52 -2q-16 -1 -20.5 -2t-6.5 -3t-2 -8q0 -11 34 -253q5 -45 9 -53q2 -4 42 -4q13 0 34 -0.5t25 -0.5h4q19 0 31.5 9t26.5 33q33 58 38 115q0 3 0.5 8.5t0.5 7.5q0 16 -12 45q-21 49 -45.5 72t-66.5 32zM85 477q0 4 56 4h10q73 0 122 -31
q28 -18 51.5 -63t27.5 -87v-10q0 -39 -18 -87t-44 -77l-16 -17l-50 -4q-18 -2 -49 -2q-49 0 -57 8q-5 8 -12 68q-5 43 -13.5 94t-13.5 93q-8 62 -17 73q-6 8 -6 13q0 10 16 16q13 6 13 9z" />
    <glyph glyph-name="g" unicode="g" horiz-adv-x="446" 
d="M55 471q3 9 5 9q10 0 18 -87q10 -127 29 -196q5 -16 17.5 -29.5t28.5 -17.5q13 -4 57 -4q43 0 59 4q82 22 91 245q2 66 6 70t9 -6q4 -5 4 -32q0 -24 -3 -81q-3 -47 -3 -110q0 -14 4 -166q4 -95 10 -147q4 -40 4 -56q0 -11 -3 -13q-5 -4 -9 0q-10 10 -17 169
q-7 176 -15 176q-3 0 -21 -24q-22 -29 -44.5 -39.5t-63.5 -10.5q-22 0 -35 1q-34 2 -41.5 4.5t-22.5 16.5q-18 17 -25 32q-5 12 -16 75t-14 94q-1 10 -3.5 38t-3.5 34q-3 21 -3 39q0 10 1 12z" />
    <glyph glyph-name="h" unicode="h" horiz-adv-x="428" 
d="M335 484q0 2 2 2t2 -2t-2 -2t-2 2zM207 721q2 2 11 2q42 0 78 -12q29 -11 44.5 -32.5t27.5 -70.5q9 -36 9 -144v-128q-2 -228 -4 -228t-8 2q-5 1 -5 236q0 185 -3 225.5t-20 73.5q-10 19 -19 27.5t-29 15.5q-16 6 -44 6q-37 0 -76 -11q-40 -13 -53 -22.5t-27 -35.5
l-16 -32l-1 -233q0 -233 -5 -238q-4 -4 -11 3q-6 6 -6 21q0 2 2 30q3 37 3 58v166q0 145 -2 223v32q0 40 4 43q1 1 4 1q10 0 10 -30v-21l25 26q23 25 30 25t43 10t38 12z" />
    <glyph glyph-name="i" unicode="i" horiz-adv-x="319" 
d="M135 483q1 3 12 3q8 0 8 -12l-2 -32q-6 -97 -31 -185q-24 -86 -29 -95q-5 -12 -5 -16q0 -8 14 -8q8 0 38 5q63 12 110 17q13 1 13 -11q0 -13 -61 -22q-8 -1 -29.5 -4.5t-41 -6t-34.5 -2.5q-21 0 -31 5q-16 7 -8 16q8 8 39 117q25 91 33 189q2 35 5 42zM147 623q13 9 17 9
q2 0 13 -7q10 -7 9 -26t-14 -24q-12 -5 -25 5q-14 10 -14 23q0 12 14 20z" />
    <glyph glyph-name="j" unicode="j" horiz-adv-x="400" 
d="M267 451q4 8 11 8q6 0 6 -9q0 -12 -11 -29t-11 -21t-31 -46q-22 -30 -61.5 -97.5t-39.5 -74.5q0 -3 14 -3q6 0 27.5 1t35.5 1q38 0 59 -8q35 -14 56 -44.5t21 -70.5q0 -21 -7 -47.5t-17 -39.5q-29 -38 -106 -38q-63 0 -95 28q-11 9 -11 14q0 4 6 4q10 0 32 -11
q32 -17 70 -17q43 0 75 20q17 12 24 37q7 22 7 46q0 44 -28 73q-19 20 -36 26t-54 6h-13q-74 -1 -81 -20q-3 -7 -16 -7t-13 9q0 15 19 39q11 17 44 75q37 67 54 89q12 16 39 57t31 50zM203 656q22 2 42 2q30 0 33 -3q1 -1 1 -4q0 -13 -71 -19q-66 -6 -98 -12q-34 -6 -41 -6
h-3l-2 1q-9 4 -6.5 11t13.5 9q14 2 16 6q3 6 7 2l2 -1h4q19 0 103 14z" />
    <glyph glyph-name="k" unicode="k" horiz-adv-x="486" 
d="M215 369q-2 5 -33 5q-22 0 -54 -3q-22 -2 -32 -2h-7q-8 2 -11 -1.5t-5 -18.5q-3 -17 -3 -48q0 -53 6 -108t12 -55q7 0 33.5 20t37.5 34q31 38 42 93q2 8 6 28.5t6 27.5q4 23 2 28zM60 690q2 5 6 5t7 -9.5t0 -13.5q-2 -4 -2 -99q0 -30 0.5 -77.5t0.5 -54.5q0 -37 3 -42
q1 -3 34 -3q26 0 108.5 3t114.5 3q43 0 47 -4q3 -3 1 -11q-2 -7 -52 -7q-52 0 -67 -3l-18 -3l3 -27q1 -18 4 -27.5t10.5 -22t11.5 -22.5q11 -25 20.5 -37t35.5 -32q41 -33 81 -40q20 -2 20 -12q0 -6 -3.5 -7.5t-16.5 -0.5q-19 0 -41 8q-29 11 -61.5 38.5t-43.5 50.5
q-29 63 -35 63q-1 0 -9 -38q-7 -36 -16 -52q-9 -17 -32 -43.5t-38 -38.5q-11 -8 -32.5 -15.5t-31.5 -7.5q-4 0 -9 22.5t-6 43.5q-1 19 -3 235v65q0 198 9 213z" />
    <glyph glyph-name="l" unicode="l" horiz-adv-x="406" 
d="M56 695q2 5 6 5q13 0 19 -58q2 -18 7 -51t5 -56q-1 -19 7 -119t12 -129q3 -14 9 -69.5t8 -65.5l3 -11l74 3q59 2 118 10l18 2q8 0 8 -8q0 -7 -9 -10t-61 -13q-28 -4 -75 -4q-92 0 -97 7q-4 5 -9 68q-5 55 -10 86q-12 55 -22 250q-3 68 -7 75q-5 10 -5 73q0 14 1 15z" />
    <glyph glyph-name="m" unicode="m" horiz-adv-x="596" 
d="M265 122q0 2 3 2q2 0 2 -2t-2 -2q-3 0 -3 2zM119 122q0 2 3 2q2 0 2 -2t-2 -2q-3 0 -3 2zM395 491h3q12 0 35.5 -4t25.5 -7q71 -85 71 -180q0 -22 5 -58.5t6 -58.5q1 -11 1 -26q0 -19 -6 -21q-2 -1 -6 -1q-9 0 -9 31q0 38 -16 165q-5 44 -15 67.5t-34 47.5l-23 22l-32 -2
q-42 -3 -71 -25.5t-62 -79.5q-23 -39 -23 -107v-12q2 -32 4 -80q1 -15 1 -34q0 -22 -7 -22q-12 0 -15 18.5t-3 94.5v63q0 74 -3.5 98.5t-16.5 55.5q-6 14 -10.5 18t-18.5 8q-12 2 -17 2q-27 0 -51.5 -16.5t-36.5 -36.5q-5 -8 -11 -4q-4 3 -4 9q0 18 26 42q31 30 71 30
q17 0 30 -4l25 -6l13 -31q15 -36 16 -50q4 -20 8 -20q5 0 20 24q17 26 41 52q19 20 36 27t53 11z" />
    <glyph glyph-name="n" unicode="n" horiz-adv-x="465" 
d="M393 482q2 4 8.5 3t8.5 -6v-1q1 -2 1 -3q0 -27 -45 -100q-18 -30 -29.5 -51t-24 -45t-25.5 -47q-12 -25 -32 -53t-31 -50l-14 -29l22 -71q16 -56 34 -108q20 -56 20 -72q0 -8 -3 -11q-6 -6 -11 -2q-6 4 -24 64q-59 193 -87 254q-2 4 -16 43q-7 26 -11 28t-15 43
q-36 118 -52 157q-11 25 -11 38t9 13q7 0 22 -36q32 -81 45 -130q8 -28 23 -69q12 -32 12 -38q0 -10 6 -14q2 -1 12.5 -25t12.5 -24t11 11.5t17 24.5l8 12q15 13 38 64q20 44 79 142q33 52 36 68q3 14 6 20z" />
    <glyph glyph-name="o" unicode="o" horiz-adv-x="425" 
d="M58 473q1 1 3 1q13 0 32 -29q14 -21 35 -40q17 -14 28 -28q12 -18 93 -103q25 -26 36 -43q10 -15 33.5 -39t28.5 -24h1v3q0 3 0.5 8.5t0.5 11.5t-0.5 23t-0.5 27q-2 58 -2 84q0 144 14 149h3q9 0 9 -41q0 -9 -2 -63q-3 -64 -3 -79q0 -13 2 -39.5t4 -59.5q2 -44 2 -49
q0 -23 -6 -25q-1 0 -2 -0.5t-2 -0.5q-7 0 -17 5t-10 9q0 5 -23 30q-41 47 -46 55q-20 26 -65 75q-28 33 -70 75q-78 80 -78 101q0 4 2 6z" />
    <glyph glyph-name="p" unicode="p" horiz-adv-x="372" 
d="M81 -55q0 17 -5.5 95t-5.5 93q0 14 -4 46q-2 12 -7 115.5t-5 151.5q0 30 2 30q10 0 13.5 -20.5t6.5 -94.5q4 -104 9 -157q8 -87 8 -108q0 -17 6 -17q3 0 32.5 27t33.5 27q6 0 24 9t35 9q16 0 34 -7q26 -10 36 -23t18 -47q3 -15 3 -30q0 -69 -48 -117q-22 -22 -29 -22
q-6 0 -6 7q0 9 23 30q25 25 33 50q8 26 8 50q0 53 -26 71q-14 10 -41 10q-23 0 -42 -8q-22 -9 -48.5 -36t-31.5 -45q-5 -22 -5 -73q0 -57 -3 -58t-10 2q-8 5 -8 40z" />
    <glyph glyph-name="q" unicode="q" horiz-adv-x="425" 
d="M291 445q-35 7 -52 7q-19 0 -37 -7q-41 -18 -61 -35.5t-36 -50.5q-26 -53 -26 -80q0 -5 2 -17q8 -32 49 -76q14 -15 44 -15q34 0 74 20q29 15 40.5 25.5t21.5 32.5q20 41 20 80q0 9 -2 27q-5 42 -5 49q0 18 -7 27t-25 13zM324 502q4 4 6 4q7 0 14 -90q1 -9 1.5 -14.5
t1 -15t1.5 -17.5q5 -52 8.5 -84.5t5.5 -52.5q4 -40 7 -55q2 -10 2 -13q0 -17 -13 -17q-10 0 -15 53q-3 39 -12 39q-5 0 -19 -17q-16 -20 -32.5 -32t-49.5 -25q-36 -14 -65 -14q-24 0 -36.5 5.5t-22.5 21.5q-2 2 -6 8.5t-8 12.5t-8 10q-30 37 -30 63q0 38 37 103
q18 31 42.5 50.5t64.5 35.5q35 13 48 13q3 0 21 -2q28 -3 42 -8q7 -2 8.5 0.5t1.5 14.5q0 18 5 23z" />
    <glyph glyph-name="r" unicode="r" horiz-adv-x="497" 
d="M260 492q16 10 23 10q8 0 15 -7q8 -7 24 -1q9 3 17 3q26 0 62 -39q42 -45 42 -87q0 -11 -1 -17q-2 -25 -14.5 -50.5t-22.5 -27.5q-6 -1 -6.5 1t1.5 12q4 15 9 22q7 7 9 40q1 5 1 15q0 47 -40 84q-16 15 -22.5 18t-23.5 3q-19 0 -36 -7.5t-21 -17.5q-4 -7 -15 -7
q-22 0 -34 -36q-9 -23 -9 -52q0 -14 4 -14q7 0 61.5 4t67.5 4h6q5 -3 3.5 -9t-7.5 -10q-5 -2 -68.5 -9.5t-68.5 -10.5l-11 -4l2 -46q5 -59 8 -82q1 -6 2 -13l1.5 -10.5t0.5 -6.5q0 -7 -5 -12q-8 -8 -17 -8t-9 13q-1 46 -8 102t-12 62q-1 1 -22 -3q-31 -7 -67 -7q-17 0 -19 2
q-4 3 -4 6q0 13 79 25l23 4l-1 17q0 17 -8 27q-9 18 -12 28q-5 17 -19.5 32.5t-29.5 20.5q-15 6 -15 12q0 10 19 10q10 0 18 -4q15 -7 33.5 -32t28.5 -51q11 -29 15 -29q2 0 10 32q7 27 26.5 58.5t36.5 42.5z" />
    <glyph glyph-name="s" unicode="s" horiz-adv-x="421" 
d="M170 479q6 1 12.5 -2.5t6.5 -8.5t-15 -12t-21 -18q-5 -11 -9 -11q-6 0 -20 -32t-19 -58q-4 -17 -4 -34q0 -25 13 -57l7 -16l19 18q7 7 81 85q33 33 39 33h1q1 -1 2 -1q9 -2 7 -8q-1 -5 -110 -123l-27 -29l14 -18q31 -39 101 -39q24 0 33.5 2.5t29.5 15.5q29 19 35 33
q8 15 17 15q3 0 3 -4v-2q-1 -1 -1 -2q-2 -10 -5 -22q-4 -19 -44 -41.5t-70 -23.5q-24 0 -57 13.5t-49 30.5l-20 20l-15 -16q-15 -19 -23 -33q-9 -16 -18 -15q-10 1 -10 10q0 13 23 42q26 32 26 40q0 5 -12 47q-9 28 -9 45q0 10 3 31q12 78 54 120q23 23 31 25z" />
    <glyph glyph-name="t" unicode="t" horiz-adv-x="390" 
d="M289 455q11 20 17 20q4 0 8 -6q4 -4 4 -24q0 -31 -8 -95q-3 -25 -3 -83q0 -43 1 -67q1 -34 1 -75q0 -35 -5 -39q-4 -4 -8 -4q-7 0 -8.5 27t-1.5 115q0 136 5 164q2 18 2 21q0 10 -4 10t-13 -10q-11 -13 -35.5 -23t-84.5 -25q-44 -11 -71 -11q-19 0 -24 1.5t-5 7.5t4 7.5
t18 1.5q28 0 92 17q57 16 79.5 29t39.5 41zM300 645q11 8 17 8q9 0 15 -12q4 -7 4 -22q0 -22 -8 -30q-10 -10 -20 -10q-20 0 -20 35q0 21 12 31z" />
    <glyph glyph-name="u" unicode="u" horiz-adv-x="425" 
d="M240 439q0 7 -2.5 8.5t-13.5 1.5q-13 0 -20.5 -2t-22.5 -3q-25 -2 -41 -9t-35 -28.5t-24 -39.5t-5 -45q0 -70 21 -110q11 -21 34.5 -42t45.5 -29q24 -10 54 -10q36 0 65.5 15t42.5 40q13 26 13 56q0 38 -21 90q-22 54 -68 82q-23 14 -23 25zM153 461q11 2 17 5t12.5 4.5
t22.5 1.5q30 0 51 -13q18 -12 43 -44t40 -63q31 -62 31 -117q0 -36 -13 -61q-16 -33 -36 -46t-63 -19q-20 -3 -34 -3q-31 0 -63 16q-14 7 -36.5 27.5t-32.5 34.5q-38 57 -38 153q0 48 27.5 82t71.5 42z" />
    <glyph glyph-name="v" unicode="v" horiz-adv-x="450" 
d="M66 -84q0 2 2 2t2 -2t-2 -2t-2 2zM270 253q0 5 -17 5q-19 0 -44 -5.5t-25 -9.5q0 -8 14.5 -36t20.5 -28q4 0 25 31.5t22 32.5q4 1 4 10zM379 470q0 12 13 3q2 -2 2 -4q0 -12 -55 -115q-28 -54 -28 -63t12 -9t39 7q20 4 24 4q11 0 11 -7q0 -4 -1 -6q-2 -6 -32 -13.5
t-50 -7.5q-11 0 -16.5 -4.5t-19.5 -25.5q-23 -36 -33 -54q-20 -38 -31 -38q-9 0 -16 19q-9 21 -25 45q-22 34 -28 36q-2 1 -5 1q-5 0 -25 -5t-30 -5q-3 0 -4 1q-2 2 -2 4q0 10 30 23q24 9 24 11q0 6 -13 38.5t-20 43.5q-9 15 -25.5 54t-17.5 50q-3 20 8 20q9 0 21 -33
q16 -40 32 -70q23 -46 27 -59q14 -41 28 -41h3q2 0 11 1.5t22.5 4t25.5 4.5l50 8l19 39q15 29 64 114q11 20 11 29z" />
    <glyph glyph-name="w" unicode="w" horiz-adv-x="771" 
d="M58 -84q0 2 2 2q3 0 3 -2t-3 -2q-2 0 -2 2zM703 460q0 4 7 4t7 -10t-8 -23q-4 -8 -24 -36q-27 -41 -68 -117t-41 -86q0 -7 -15 -27q-20 -30 -23 -36q-11 -23 -26 -23q-2 0 -4 2q-9 9 -13 187l-3 112l-11 -21q-14 -26 -25 -41q-20 -30 -60.5 -114t-43.5 -102
q-2 -10 -9 -19.5t-13 -9.5t-9 8t1 13q1 1 13 31q15 37 52.5 114t46.5 89q3 4 26.5 47t32.5 48q6 3 11 3q9 0 11 -24.5t4 -125.5q0 -141 4 -143q1 -1 2 -1q11 0 36 54q79 165 123 218q19 24 19 29zM313 471q0 7 6 15.5t12 8.5q4 0 8 -7l1 -1v-2q0 -12 -32 -73
q-13 -26 -21 -43.5t-11.5 -25t-10 -26t-12.5 -33.5q-55 -133 -59 -139q-4 -7 -4 -15q0 -5 -13.5 -15t-20.5 -10t-7 11t6 11t15 20q10 19 38.5 86t36.5 92q13 37 51 109q17 32 17 37z" />
    <glyph glyph-name="x" unicode="x" horiz-adv-x="448" 
d="M179 441q0 8 -6 8q-9 0 -24 -11q-23 -15 -35 -28.5t-25 -40.5q-16 -33 -16 -56v-15q1 -35 19 -76q19 -40 29 -50q13 -13 43 -29t47 -18q14 -1 20 -2.5t20 -2.5q19 -3 28 5q7 7 15 5h2q9 0 27 14.5t24 28.5q27 54 27 133q0 39 -8 56q-16 38 -56 63q-25 14 -48 14
q-14 0 -37 -5q-18 -5 -31 -5q-15 0 -15 12zM193 481q7 4 24 4q31 0 46 -10q13 -8 29 -14q13 -5 37 -21q65 -44 65 -143q0 -38 -10 -74q-3 -10 -8 -28t-6 -21q-4 -14 -21 -34.5t-32 -28.5t-15 -15q0 -2 2 -12q0 -4 2.5 -23.5t3.5 -30.5q3 -29 13 -63.5t18 -44.5q4 -4 4 -13
q0 -8 13 -34q15 -33 20 -45q4 -14 8 -22q2 -5 0.5 -6.5t-9.5 -1.5q-10 0 -19.5 16t-30.5 67q-13 31 -17 31t-4 13q0 14 -7 28q-7 13 -7 47q0 24 -4.5 52.5t-8.5 33.5q-3 3 -37 5q-36 2 -62 13q-30 12 -34 12q-7 0 -27.5 19.5t-26.5 31.5q-2 5 -11 22t-12 23q-11 21 -13 32.5
t-2 46.5q0 37 2 48t15 36q36 70 89 91q24 9 33 13z" />
    <glyph glyph-name="y" unicode="y" horiz-adv-x="524" 
d="M390 487q15 3 30 3q49 0 49 -15q0 -6 -5.5 -7.5t-25.5 -1.5q-43 0 -51 -8q-6 -6 -25 -12q-20 -6 -36 -19q-22 -18 -57 -52.5t-42 -47.5q-9 -16 -13 -18q-2 -1 -19 -37q-17 -39 -17 -84q0 -43 17 -190q3 -20 6 -38.5t4 -28.5t1 -26q0 -23 6 -55q7 -42 7 -43q0 -7 -8 -7
q-20 0 -28 105q-3 51 -7 67q-3 8 -11 103t-9 100q-15 69 -34 125q-12 38 -29.5 78t-21.5 40q-3 0 -9 16.5t-6 24.5t11 3q5 -2 8 -6q7 -8 34.5 -73t41.5 -107q2 -6 4 -10.5t4 -7t3 -2.5q3 0 13 23q22 55 94.5 125.5t120.5 82.5z" />
    <glyph glyph-name="z" unicode="z" horiz-adv-x="522" 
d="M248 323q0 5 72.5 78.5t72.5 78.5q0 2 -55 2q-117 0 -160 -5q-42 -6 -73 -16q-30 -10 -41 -10q-7 0 -7 4q0 9 39.5 21t85.5 17q2 0 20.5 0.5t47.5 1t56 0.5q81 0 95.5 -1t14.5 -8t-10 -18t-76 -79q-60 -60 -78 -91q-8 -13 -17.5 -27.5t-13.5 -20.5t-11.5 -19.5
t-18.5 -35.5t-18 -27t-7 -10q0 -4 -10 -16l-10 -12l140 4q137 3 158 10q21 1 22 -2q0 -6 -6.5 -9.5t-28 -6t-56.5 -4t-97 -2.5q-90 -2 -102 -2q-52 0 -52 9q0 3 15 20q13 15 13 19t9 13q10 10 28 46q23 41 39 65q20 29 20 33z" />
    <glyph glyph-name="nbsp" unicode="&#xa0;" 
 />
  </font>
</defs>
</svg>
